<?xml version="1.0" encoding="UTF-8" standalone="no"?>
<!DOCTYPE svg PUBLIC "-//W3C//DTD SVG 1.1//EN" "http://www.w3.org/Graphics/SVG/1.1/DTD/svg11.dtd">
<svg width="100%" height="100%" viewBox="0 0 1080 1080" version="1.1" xmlns="http://www.w3.org/2000/svg" xmlns:xlink="http://www.w3.org/1999/xlink" xml:space="preserve" xmlns:serif="http://www.serif.com/" style="fill-rule:evenodd;clip-rule:evenodd;stroke-linejoin:round;stroke-miterlimit:2;">
    <g transform="matrix(4.05991,0,0,4.05991,-1649.96,-446.015)">
        <g transform="matrix(0.469883,0,0,0.234941,327.524,234.445)">
            <circle cx="452.19" cy="431.575" r="159.614" style="fill:rgb(230,230,230);"/>
        </g>
        <g transform="matrix(7.10017,0,0,2.95717,-1605.31,-409.595)">
            <rect x="291.586" y="239.958" width="21.126" height="12.122" style="fill:rgb(230,230,230);"/>
        </g>
        <g transform="matrix(0.469883,0,0,0.234941,327.524,198.605)">
            <circle cx="452.19" cy="431.575" r="159.614" style="fill:rgb(217,217,217);"/>
        </g>
        <g transform="matrix(0.448372,0,0,0.224186,337.25,203.247)">
            <circle cx="452.19" cy="431.575" r="159.614" style="fill:rgb(217,217,217);"/>
        </g>
        <g transform="matrix(0.44773,0,0,0.223865,337.541,203.385)">
            <path d="M313.182,509.942C300.056,486.821 292.576,460.065 292.576,431.575C292.576,343.482 364.097,271.961 452.19,271.961C540.284,271.961 611.804,343.482 611.804,431.575C611.804,460.065 604.324,486.821 591.198,509.942C563.811,461.437 511.794,428.695 452.19,428.695C392.586,428.695 340.569,461.437 313.182,509.942Z" style="fill:rgb(179,179,179);"/>
        </g>
        <g transform="matrix(0.448372,0,0,0.224186,337.25,210.175)">
            <path d="M293.335,416.123C301.102,335.264 369.312,271.961 452.19,271.961C535.068,271.961 603.278,335.264 611.045,416.123C603.278,496.982 535.068,560.285 452.19,560.285C369.312,560.285 301.102,496.982 293.335,416.123Z" style="fill:rgb(152,193,255);"/>
        </g>
        <g transform="matrix(0.316667,0,0,0.316667,368.242,50.4283)">
            <path d="M542.392,669.7C673.109,669.7 779.235,722.763 779.235,788.121C779.235,853.479 673.109,906.542 542.392,906.542C411.676,906.542 305.55,853.479 305.55,788.121C305.55,722.763 411.676,669.7 542.392,669.7ZM542.392,675.121C667.125,675.121 768.392,725.755 768.392,788.121C768.392,850.487 667.125,901.121 542.392,901.121C417.66,901.121 316.392,850.487 316.392,788.121C316.392,725.755 417.66,675.121 542.392,675.121Z" style="fill:rgb(217,217,217);"/>
        </g>
    </g>
    <g transform="matrix(1.82035,0,0,0.910175,-283.144,407.296)">
        <path d="M597.487,365.539C604.646,381.191 609.326,398.227 611.045,416.123C603.278,496.982 535.068,560.285 452.19,560.285C369.312,560.285 301.102,496.982 293.335,416.123C295.054,398.227 299.734,381.191 306.893,365.539L354.381,365.539L354.38,365.56C354.38,419.543 398.207,463.37 452.19,463.37C506.173,463.37 550,419.543 550,365.56L549.999,365.539L597.487,365.539Z" style="fill:rgb(152,193,255);fill-opacity:0.5;"/>
    </g>
</svg>
