<?xml version="1.0" encoding="UTF-8" standalone="no"?>
<!DOCTYPE svg PUBLIC "-//W3C//DTD SVG 1.1//EN" "http://www.w3.org/Graphics/SVG/1.1/DTD/svg11.dtd">
<svg width="100%" height="100%" viewBox="0 0 1080 1080" version="1.1" xmlns="http://www.w3.org/2000/svg" xmlns:xlink="http://www.w3.org/1999/xlink" xml:space="preserve" xmlns:serif="http://www.serif.com/" style="fill-rule:evenodd;clip-rule:evenodd;stroke-linejoin:round;stroke-miterlimit:2;">
    <g transform="matrix(1.42449,0,0,1.42449,-230.216,-215.429)">
        <g transform="matrix(0.783138,0,0,0.391569,185.873,521.009)">
            <circle cx="452.19" cy="431.575" r="159.614" style="fill:rgb(230,230,230);"/>
        </g>
        <g transform="matrix(11.8336,0,0,24.7485,-3035.51,-5548.59)">
            <rect x="291.586" y="239.958" width="21.126" height="12.122" style="fill:rgb(230,230,230);"/>
        </g>
        <g transform="matrix(0.783138,0,0,0.391569,185.873,221.009)">
            <circle cx="452.19" cy="431.575" r="159.614" style="fill:rgb(203,203,203);"/>
        </g>
        <g transform="matrix(0.844222,0,0,0.960616,73.779,-7.77783)">
            <path d="M689.061,389.533L415.437,389.533L466.605,331.237L637.894,331.237L689.061,389.533Z" style="fill:rgb(203,203,203);"/>
        </g>
        <g transform="matrix(0.469883,0,0,0.234941,327.524,218.605)">
            <circle cx="452.19" cy="431.575" r="159.614" style="fill:rgb(230,230,230);"/>
        </g>
        <g transform="matrix(7.10017,0,0,1.6499,-1605.31,-95.906)">
            <rect x="291.586" y="239.958" width="21.126" height="12.122" style="fill:rgb(230,230,230);"/>
        </g>
        <g transform="matrix(0.469883,0,0,0.234941,327.524,198.605)">
            <circle cx="452.19" cy="431.575" r="159.614" style="fill:rgb(217,217,217);"/>
        </g>
        <g transform="matrix(0.44773,0,0,0.223865,337.541,238.473)">
            <path d="M313.182,353.208C340.569,304.702 392.586,271.961 452.19,271.961C511.794,271.961 563.811,304.702 591.198,353.208C563.811,401.714 511.794,434.455 452.19,434.455C392.586,434.455 340.569,401.714 313.182,353.208Z" style="fill:rgb(166,166,166);"/>
        </g>
        <g transform="matrix(0.44773,0,0,0.223865,337.541,203.385)">
            <path d="M313.182,509.942C300.056,486.821 292.576,460.065 292.576,431.575C292.576,343.482 364.097,271.961 452.19,271.961C540.284,271.961 611.804,343.482 611.804,431.575C611.804,460.065 604.324,486.821 591.198,509.942C563.811,461.437 511.794,428.695 452.19,428.695C392.586,428.695 340.569,461.437 313.182,509.942Z" style="fill:rgb(179,179,179);"/>
        </g>
    </g>
</svg>
