<?xml version="1.0" encoding="UTF-8" standalone="no"?>
<!DOCTYPE svg PUBLIC "-//W3C//DTD SVG 1.1//EN" "http://www.w3.org/Graphics/SVG/1.1/DTD/svg11.dtd">
<svg width="100%" height="100%" viewBox="0 0 1080 85" version="1.1" xmlns="http://www.w3.org/2000/svg" xmlns:xlink="http://www.w3.org/1999/xlink" xml:space="preserve" xmlns:serif="http://www.serif.com/" style="fill-rule:evenodd;clip-rule:evenodd;stroke-linejoin:round;stroke-miterlimit:2;">
    <g transform="matrix(1.26851,0,0,1.26851,-148.762,-399.028)">
        <path d="M135.147,366.68C131.787,366.68 128.751,365.894 126.039,364.322C123.327,362.75 121.188,360.608 119.622,357.896C118.056,355.184 117.273,352.16 117.273,348.824C117.273,345.464 118.056,342.443 119.622,339.761C121.188,337.079 123.327,334.955 126.039,333.389C128.751,331.823 131.787,331.04 135.147,331.04C137.763,331.04 140.205,331.538 142.473,332.534C144.741,333.53 146.673,334.946 148.269,336.782L144.003,341.102C142.923,339.854 141.624,338.906 140.106,338.258C138.588,337.61 136.935,337.286 135.147,337.286C132.975,337.286 131.043,337.784 129.351,338.78C127.659,339.776 126.336,341.132 125.382,342.848C124.428,344.564 123.951,346.556 123.951,348.824C123.951,351.068 124.428,353.063 125.382,354.809C126.336,356.555 127.659,357.929 129.351,358.931C131.043,359.933 132.975,360.434 135.147,360.434C136.947,360.434 138.609,360.11 140.133,359.462C141.657,358.814 142.965,357.86 144.057,356.6L148.323,360.92C146.715,362.768 144.771,364.19 142.491,365.186C140.211,366.182 137.763,366.68 135.147,366.68Z" style="fill-rule:nonzero;"/>
        <path d="M179.301,365.96L179.301,346.052C179.301,343.424 178.494,341.276 176.88,339.608C175.266,337.94 173.167,337.106 170.584,337.106C168.826,337.106 167.275,337.487 165.929,338.249C164.584,339.011 163.53,340.064 162.768,341.408C162.006,342.752 161.625,344.294 161.625,346.034L158.925,344.522C158.925,341.918 159.51,339.605 160.68,337.583C161.85,335.561 163.459,333.965 165.507,332.795C167.556,331.625 169.875,331.04 172.464,331.04C175.054,331.04 177.354,331.622 179.364,332.786C181.374,333.95 182.949,335.561 184.089,337.619C185.229,339.677 185.799,342.056 185.799,344.756L185.799,365.96L179.301,365.96ZM155.127,365.96L155.127,314.552L161.625,314.552L161.625,365.96L155.127,365.96Z" style="fill-rule:nonzero;"/>
        <path d="M193.845,365.96L193.845,331.76L200.343,331.76L200.343,365.96L193.845,365.96ZM197.085,324.938C195.921,324.938 194.952,324.536 194.178,323.732C193.404,322.928 193.017,321.944 193.017,320.78C193.017,319.604 193.404,318.62 194.178,317.828C194.952,317.036 195.921,316.64 197.085,316.64C198.297,316.64 199.284,317.036 200.046,317.828C200.808,318.62 201.189,319.604 201.189,320.78C201.189,321.944 200.808,322.928 200.046,323.732C199.284,324.536 198.297,324.938 197.085,324.938Z" style="fill-rule:nonzero;"/>
        <path d="M222.195,366.68C219.039,366.68 216.195,365.897 213.663,364.331C211.131,362.765 209.13,360.641 207.66,357.959C206.19,355.277 205.455,352.268 205.455,348.932C205.455,345.56 206.19,342.53 207.66,339.842C209.13,337.154 211.128,335.015 213.654,333.425C216.18,331.835 219.015,331.04 222.159,331.04C224.775,331.04 227.103,331.58 229.143,332.66C231.183,333.74 232.824,335.234 234.066,337.142C235.308,339.05 235.995,341.24 236.127,343.712L236.127,353.99C235.983,356.462 235.299,358.655 234.075,360.569C232.851,362.483 231.216,363.98 229.17,365.06C227.124,366.14 224.799,366.68 222.195,366.68ZM223.239,360.542C226.467,360.542 229.062,359.459 231.024,357.293C232.986,355.127 233.967,352.322 233.967,348.878C233.967,346.562 233.52,344.525 232.626,342.767C231.732,341.009 230.478,339.638 228.864,338.654C227.25,337.67 225.363,337.178 223.203,337.178C221.043,337.178 219.135,337.676 217.479,338.672C215.823,339.668 214.518,341.045 213.564,342.803C212.61,344.561 212.133,346.58 212.133,348.86C212.133,351.14 212.61,353.159 213.564,354.917C214.518,356.675 215.829,358.052 217.497,359.048C219.165,360.044 221.079,360.542 223.239,360.542ZM233.571,365.96L233.571,356.78L234.759,348.41L233.571,340.148L233.571,331.76L240.069,331.76L240.069,365.96L233.571,365.96Z" style="fill-rule:nonzero;"/>
        <path d="M271.929,365.96L255.963,348.464L271.749,331.76L279.597,331.76L261.993,350.174L262.263,346.466L280.299,365.96L271.929,365.96ZM250.023,365.96L250.023,314.552L256.521,314.552L256.521,365.96L250.023,365.96Z" style="fill-rule:nonzero;"/>
        <path d="M281.685,365.96L281.685,331.76L288.183,331.76L288.183,365.96L281.685,365.96ZM284.925,324.938C283.761,324.938 282.792,324.536 282.018,323.732C281.244,322.928 280.857,321.944 280.857,320.78C280.857,319.604 281.244,318.62 282.018,317.828C282.792,317.036 283.761,316.64 284.925,316.64C286.137,316.64 287.124,317.036 287.886,317.828C288.648,318.62 289.029,319.604 289.029,320.78C289.029,321.944 288.648,322.928 287.886,323.732C287.124,324.536 286.137,324.938 284.925,324.938Z" style="fill-rule:nonzero;"/>
        <path d="M301.143,366.68C299.787,366.68 298.671,366.218 297.795,365.294C296.919,364.37 296.481,363.254 296.481,361.946C296.481,360.59 296.919,359.465 297.795,358.571C298.671,357.677 299.787,357.23 301.143,357.23C302.499,357.23 303.615,357.677 304.491,358.571C305.367,359.465 305.805,360.59 305.805,361.946C305.805,363.254 305.367,364.37 304.491,365.294C303.615,366.218 302.499,366.68 301.143,366.68Z" style="fill-rule:nonzero;"/>
        <path d="M338.097,365.96L322.131,348.464L337.917,331.76L345.765,331.76L328.161,350.174L328.431,346.466L346.467,365.96L338.097,365.96ZM316.191,365.96L316.191,314.552L322.689,314.552L322.689,365.96L316.191,365.96Z" style="fill-rule:nonzero;"/>
        <path d="M362.109,366.68C358.785,366.68 355.776,365.885 353.082,364.295C350.388,362.705 348.249,360.554 346.665,357.842C345.081,355.13 344.289,352.106 344.289,348.77C344.289,345.446 345.081,342.452 346.665,339.788C348.249,337.124 350.388,335 353.082,333.416C355.776,331.832 358.785,331.04 362.109,331.04C365.457,331.04 368.478,331.823 371.172,333.389C373.866,334.955 376.005,337.079 377.589,339.761C379.173,342.443 379.965,345.446 379.965,348.77C379.965,352.118 379.173,355.145 377.589,357.851C376.005,360.557 373.866,362.705 371.172,364.295C368.478,365.885 365.457,366.68 362.109,366.68ZM362.109,360.434C364.281,360.434 366.21,359.933 367.896,358.931C369.582,357.929 370.902,356.543 371.856,354.773C372.81,353.003 373.287,350.996 373.287,348.752C373.287,346.532 372.801,344.564 371.829,342.848C370.857,341.132 369.537,339.776 367.869,338.78C366.201,337.784 364.281,337.286 362.109,337.286C359.973,337.286 358.059,337.784 356.367,338.78C354.675,339.776 353.352,341.132 352.398,342.848C351.444,344.564 350.967,346.538 350.967,348.77C350.967,351.014 351.444,353.018 352.398,354.782C353.352,356.546 354.675,357.929 356.367,358.931C358.059,359.933 359.973,360.434 362.109,360.434Z" style="fill-rule:nonzero;"/>
        <path d="M401.961,381.008C398.433,381.008 395.319,380.363 392.619,379.073C389.919,377.783 387.741,375.956 386.085,373.592L390.315,369.362C391.683,371.126 393.327,372.476 395.247,373.412C397.167,374.348 399.447,374.816 402.087,374.816C405.579,374.816 408.348,373.898 410.394,372.062C412.44,370.226 413.463,367.73 413.463,364.574L413.463,356.096L414.651,348.428L413.463,340.76L413.463,331.76L419.961,331.76L419.961,364.574C419.961,367.862 419.205,370.733 417.693,373.187C416.181,375.641 414.072,377.558 411.366,378.938C408.66,380.318 405.525,381.008 401.961,381.008ZM401.961,365.42C398.853,365.42 396.057,364.67 393.573,363.17C391.089,361.67 389.133,359.612 387.705,356.996C386.277,354.38 385.563,351.44 385.563,348.176C385.563,344.924 386.274,342.008 387.696,339.428C389.118,336.848 391.071,334.805 393.555,333.299C396.039,331.793 398.829,331.04 401.925,331.04C404.613,331.04 406.992,331.571 409.062,332.633C411.132,333.695 412.776,335.171 413.994,337.061C415.212,338.951 415.887,341.168 416.019,343.712L416.019,352.766C415.875,355.262 415.185,357.464 413.949,359.372C412.713,361.28 411.066,362.765 409.008,363.827C406.95,364.889 404.601,365.42 401.961,365.42ZM403.221,359.282C405.345,359.282 407.208,358.823 408.81,357.905C410.412,356.987 411.654,355.7 412.536,354.044C413.418,352.388 413.859,350.45 413.859,348.23C413.859,346.022 413.415,344.093 412.527,342.443C411.639,340.793 410.394,339.503 408.792,338.573C407.19,337.643 405.321,337.178 403.185,337.178C401.037,337.178 399.138,337.643 397.488,338.573C395.838,339.503 394.551,340.793 393.627,342.443C392.703,344.093 392.241,346.016 392.241,348.212C392.241,350.372 392.706,352.292 393.636,353.972C394.566,355.652 395.856,356.957 397.506,357.887C399.156,358.817 401.061,359.282 403.221,359.282Z" style="fill-rule:nonzero;"/>
        <path d="M430.167,365.96L430.167,331.76L436.665,331.76L436.665,365.96L430.167,365.96ZM436.665,346.484L434.235,345.35C434.235,341.018 435.243,337.55 437.259,334.946C439.275,332.342 442.179,331.04 445.971,331.04C447.675,331.04 449.226,331.346 450.624,331.958C452.022,332.57 453.321,333.554 454.521,334.91L450.255,339.32C449.535,338.54 448.74,337.982 447.87,337.646C447,337.31 445.995,337.142 444.855,337.142C442.467,337.142 440.505,337.913 438.969,339.455C437.433,340.997 436.665,343.34 436.665,346.484Z" style="fill-rule:nonzero;"/>
        <path d="M472.359,366.68C468.939,366.68 465.867,365.906 463.143,364.358C460.419,362.81 458.265,360.683 456.681,357.977C455.097,355.271 454.305,352.226 454.305,348.842C454.305,345.47 455.082,342.443 456.636,339.761C458.19,337.079 460.305,334.955 462.981,333.389C465.657,331.823 468.639,331.04 471.927,331.04C475.083,331.04 477.873,331.763 480.297,333.209C482.721,334.655 484.626,336.644 486.012,339.176C487.398,341.708 488.091,344.6 488.091,347.852C488.091,348.332 488.061,348.848 488.001,349.4C487.941,349.952 487.845,350.576 487.713,351.272L458.859,351.272L458.859,345.89L484.275,345.89L481.899,347.96C481.875,345.668 481.461,343.712 480.657,342.092C479.853,340.472 478.707,339.221 477.219,338.339C475.731,337.457 473.925,337.016 471.801,337.016C469.569,337.016 467.622,337.499 465.96,338.465C464.298,339.431 463.008,340.778 462.09,342.506C461.172,344.234 460.713,346.28 460.713,348.644C460.713,351.032 461.196,353.126 462.162,354.926C463.128,356.726 464.493,358.121 466.257,359.111C468.021,360.101 470.061,360.596 472.377,360.596C474.285,360.596 476.049,360.254 477.669,359.57C479.289,358.886 480.663,357.878 481.791,356.546L485.949,360.758C484.317,362.678 482.316,364.145 479.946,365.159C477.576,366.173 475.047,366.68 472.359,366.68Z" style="fill-rule:nonzero;"/>
        <path d="M499.215,365.96L499.215,317.432L505.713,317.432L505.713,365.96L499.215,365.96ZM490.809,337.646L490.809,331.76L514.101,331.76L514.101,337.646L490.809,337.646Z" style="fill-rule:nonzero;"/>
        <path d="M532.371,366.68C529.011,366.68 525.975,365.894 523.263,364.322C520.551,362.75 518.412,360.608 516.846,357.896C515.28,355.184 514.497,352.16 514.497,348.824C514.497,345.464 515.28,342.443 516.846,339.761C518.412,337.079 520.551,334.955 523.263,333.389C525.975,331.823 529.011,331.04 532.371,331.04C534.987,331.04 537.429,331.538 539.697,332.534C541.965,333.53 543.897,334.946 545.493,336.782L541.227,341.102C540.147,339.854 538.848,338.906 537.33,338.258C535.812,337.61 534.159,337.286 532.371,337.286C530.199,337.286 528.267,337.784 526.575,338.78C524.883,339.776 523.56,341.132 522.606,342.848C521.652,344.564 521.175,346.556 521.175,348.824C521.175,351.068 521.652,353.063 522.606,354.809C523.56,356.555 524.883,357.929 526.575,358.931C528.267,359.933 530.199,360.434 532.371,360.434C534.171,360.434 535.833,360.11 537.357,359.462C538.881,358.814 540.189,357.86 541.281,356.6L545.547,360.92C543.939,362.768 541.995,364.19 539.715,365.186C537.435,366.182 534.987,366.68 532.371,366.68Z" style="fill-rule:nonzero;"/>
        <path d="M576.525,365.96L576.525,346.052C576.525,343.424 575.718,341.276 574.104,339.608C572.49,337.94 570.391,337.106 567.808,337.106C566.05,337.106 564.499,337.487 563.153,338.249C561.808,339.011 560.754,340.064 559.992,341.408C559.23,342.752 558.849,344.294 558.849,346.034L556.149,344.522C556.149,341.918 556.734,339.605 557.904,337.583C559.074,335.561 560.683,333.965 562.731,332.795C564.78,331.625 567.099,331.04 569.688,331.04C572.278,331.04 574.578,331.622 576.588,332.786C578.598,333.95 580.173,335.561 581.313,337.619C582.453,339.677 583.023,342.056 583.023,344.756L583.023,365.96L576.525,365.96ZM552.351,365.96L552.351,314.552L558.849,314.552L558.849,365.96L552.351,365.96Z" style="fill-rule:nonzero;"/>
        <path d="M613.479,372.476C610.215,372.476 607.161,371.882 604.317,370.694C601.473,369.506 598.986,367.853 596.856,365.735C594.726,363.617 593.067,361.13 591.879,358.274C590.691,355.418 590.097,352.328 590.097,349.004C590.097,345.632 590.703,342.518 591.915,339.662C593.127,336.806 594.822,334.307 597,332.165C599.178,330.023 601.713,328.358 604.605,327.17C607.497,325.982 610.599,325.388 613.911,325.388C618.351,325.388 622.263,326.387 625.647,328.385C629.031,330.383 631.686,333.14 633.612,336.656C635.538,340.172 636.501,344.216 636.501,348.788C636.501,350.84 636.297,352.694 635.889,354.35C635.481,356.006 634.827,357.548 633.927,358.976L628.365,358.67C629.061,357.746 629.61,356.792 630.012,355.808C630.414,354.824 630.714,353.729 630.912,352.523C631.11,351.317 631.209,349.934 631.209,348.374C631.209,344.606 630.522,341.39 629.148,338.726C627.774,336.062 625.8,334.022 623.226,332.606C620.652,331.19 617.583,330.482 614.019,330.482C610.371,330.482 607.167,331.244 604.407,332.768C601.647,334.292 599.502,336.44 597.972,339.212C596.442,341.984 595.677,345.272 595.677,349.076C595.677,352.784 596.418,356.009 597.9,358.751C599.382,361.493 601.458,363.617 604.128,365.123C606.798,366.629 609.867,367.382 613.335,367.382C615.891,367.382 618.171,367.037 620.175,366.347C622.179,365.657 623.949,364.628 625.485,363.26L629.103,366.914C627.003,368.726 624.636,370.106 622.002,371.054C619.368,372.002 616.527,372.476 613.479,372.476ZM612.165,359.498C610.329,359.498 608.646,359.033 607.116,358.103C605.586,357.173 604.362,355.91 603.444,354.314C602.526,352.718 602.067,350.948 602.067,349.004C602.067,347 602.526,345.2 603.444,343.604C604.362,342.008 605.586,340.736 607.116,339.788C608.646,338.84 610.329,338.366 612.165,338.366C614.505,338.366 616.407,338.939 617.871,340.085C619.335,341.231 620.067,342.878 620.067,345.026L620.067,352.856C620.067,354.956 619.347,356.588 617.907,357.752C616.467,358.916 614.553,359.498 612.165,359.498ZM612.489,354.98C614.205,354.98 615.576,354.416 616.602,353.288C617.628,352.16 618.141,350.708 618.141,348.932C618.141,347.096 617.631,345.629 616.611,344.531C615.591,343.433 614.223,342.884 612.507,342.884C610.887,342.884 609.543,343.445 608.475,344.567C607.407,345.689 606.873,347.144 606.873,348.932C606.873,350.708 607.404,352.16 608.466,353.288C609.528,354.416 610.869,354.98 612.489,354.98ZM620.535,358.976L620.535,354.71L633.927,354.71L633.927,358.976L620.535,358.976ZM618.501,358.976L618.501,353.648L619.257,348.644L618.501,343.802L618.501,338.798L623.199,338.798L623.199,358.976L618.501,358.976Z" style="fill-rule:nonzero;"/>
        <path d="M662.097,381.008C658.569,381.008 655.455,380.363 652.755,379.073C650.055,377.783 647.877,375.956 646.221,373.592L650.451,369.362C651.819,371.126 653.463,372.476 655.383,373.412C657.303,374.348 659.583,374.816 662.223,374.816C665.715,374.816 668.484,373.898 670.53,372.062C672.576,370.226 673.599,367.73 673.599,364.574L673.599,356.096L674.787,348.428L673.599,340.76L673.599,331.76L680.097,331.76L680.097,364.574C680.097,367.862 679.341,370.733 677.829,373.187C676.317,375.641 674.208,377.558 671.502,378.938C668.796,380.318 665.661,381.008 662.097,381.008ZM662.097,365.42C658.989,365.42 656.193,364.67 653.709,363.17C651.225,361.67 649.269,359.612 647.841,356.996C646.413,354.38 645.699,351.44 645.699,348.176C645.699,344.924 646.41,342.008 647.832,339.428C649.254,336.848 651.207,334.805 653.691,333.299C656.175,331.793 658.965,331.04 662.061,331.04C664.749,331.04 667.128,331.571 669.198,332.633C671.268,333.695 672.912,335.171 674.13,337.061C675.348,338.951 676.023,341.168 676.155,343.712L676.155,352.766C676.011,355.262 675.321,357.464 674.085,359.372C672.849,361.28 671.202,362.765 669.144,363.827C667.086,364.889 664.737,365.42 662.097,365.42ZM663.357,359.282C665.481,359.282 667.344,358.823 668.946,357.905C670.548,356.987 671.79,355.7 672.672,354.044C673.554,352.388 673.995,350.45 673.995,348.23C673.995,346.022 673.551,344.093 672.663,342.443C671.775,340.793 670.53,339.503 668.928,338.573C667.326,337.643 665.457,337.178 663.321,337.178C661.173,337.178 659.274,337.643 657.624,338.573C655.974,339.503 654.687,340.793 653.763,342.443C652.839,344.093 652.377,346.016 652.377,348.212C652.377,350.372 652.842,352.292 653.772,353.972C654.702,355.652 655.992,356.957 657.642,357.887C659.292,358.817 661.197,359.282 663.357,359.282Z" style="fill-rule:nonzero;"/>
        <path d="M690.303,365.96L690.303,331.76L696.801,331.76L696.801,365.96L690.303,365.96ZM713.433,365.96L713.433,345.296C713.433,342.752 712.653,340.751 711.093,339.293C709.533,337.835 707.583,337.106 705.243,337.106C703.659,337.106 702.234,337.436 700.968,338.096C699.702,338.756 698.691,339.692 697.935,340.904C697.179,342.116 696.801,343.568 696.801,345.26L694.101,343.946C694.101,341.33 694.674,339.062 695.82,337.142C696.966,335.222 698.52,333.725 700.482,332.651C702.444,331.577 704.643,331.04 707.079,331.04C709.503,331.04 711.684,331.568 713.622,332.624C715.56,333.68 717.096,335.168 718.23,337.088C719.364,339.008 719.931,341.3 719.931,343.964L719.931,365.96L713.433,365.96ZM736.563,365.96L736.563,345.296C736.563,342.752 735.783,340.751 734.223,339.293C732.663,337.835 730.713,337.106 728.373,337.106C726.825,337.106 725.409,337.436 724.125,338.096C722.841,338.756 721.821,339.692 721.065,340.904C720.309,342.116 719.931,343.568 719.931,345.26L716.205,343.946C716.385,341.318 717.105,339.047 718.365,337.133C719.625,335.219 721.263,333.725 723.279,332.651C725.295,331.577 727.515,331.04 729.939,331.04C732.399,331.04 734.616,331.568 736.59,332.624C738.564,333.68 740.136,335.171 741.306,337.097C742.476,339.023 743.061,341.318 743.061,343.982L743.061,365.96L736.563,365.96Z" style="fill-rule:nonzero;"/>
        <path d="M765.147,366.68C761.991,366.68 759.147,365.897 756.615,364.331C754.083,362.765 752.082,360.641 750.612,357.959C749.142,355.277 748.407,352.268 748.407,348.932C748.407,345.56 749.142,342.53 750.612,339.842C752.082,337.154 754.08,335.015 756.606,333.425C759.132,331.835 761.967,331.04 765.111,331.04C767.727,331.04 770.055,331.58 772.095,332.66C774.135,333.74 775.776,335.234 777.018,337.142C778.26,339.05 778.947,341.24 779.079,343.712L779.079,353.99C778.935,356.462 778.251,358.655 777.027,360.569C775.803,362.483 774.168,363.98 772.122,365.06C770.076,366.14 767.751,366.68 765.147,366.68ZM766.191,360.542C769.419,360.542 772.014,359.459 773.976,357.293C775.938,355.127 776.919,352.322 776.919,348.878C776.919,346.562 776.472,344.525 775.578,342.767C774.684,341.009 773.43,339.638 771.816,338.654C770.202,337.67 768.315,337.178 766.155,337.178C763.995,337.178 762.087,337.676 760.431,338.672C758.775,339.668 757.47,341.045 756.516,342.803C755.562,344.561 755.085,346.58 755.085,348.86C755.085,351.14 755.562,353.159 756.516,354.917C757.47,356.675 758.781,358.052 760.449,359.048C762.117,360.044 764.031,360.542 766.191,360.542ZM776.523,365.96L776.523,356.78L777.711,348.41L776.523,340.148L776.523,331.76L783.021,331.76L783.021,365.96L776.523,365.96Z" style="fill-rule:nonzero;"/>
        <path d="M793.029,365.96L793.029,331.76L799.527,331.76L799.527,365.96L793.029,365.96ZM796.269,324.938C795.105,324.938 794.136,324.536 793.362,323.732C792.588,322.928 792.201,321.944 792.201,320.78C792.201,319.604 792.588,318.62 793.362,317.828C794.136,317.036 795.105,316.64 796.269,316.64C797.481,316.64 798.468,317.036 799.23,317.828C799.992,318.62 800.373,319.604 800.373,320.78C800.373,321.944 799.992,322.928 799.23,323.732C798.468,324.536 797.481,324.938 796.269,324.938Z" style="fill-rule:nonzero;"/>
        <rect x="806.799" y="314.552" width="6.498" height="51.408" style="fill-rule:nonzero;"/>
        <path d="M826.239,366.68C824.883,366.68 823.767,366.218 822.891,365.294C822.015,364.37 821.577,363.254 821.577,361.946C821.577,360.59 822.015,359.465 822.891,358.571C823.767,357.677 824.883,357.23 826.239,357.23C827.595,357.23 828.711,357.677 829.587,358.571C830.463,359.465 830.901,360.59 830.901,361.946C830.901,363.254 830.463,364.37 829.587,365.294C828.711,366.218 827.595,366.68 826.239,366.68Z" style="fill-rule:nonzero;"/>
        <path d="M854.931,366.68C851.571,366.68 848.535,365.894 845.823,364.322C843.111,362.75 840.972,360.608 839.406,357.896C837.84,355.184 837.057,352.16 837.057,348.824C837.057,345.464 837.84,342.443 839.406,339.761C840.972,337.079 843.111,334.955 845.823,333.389C848.535,331.823 851.571,331.04 854.931,331.04C857.547,331.04 859.989,331.538 862.257,332.534C864.525,333.53 866.457,334.946 868.053,336.782L863.787,341.102C862.707,339.854 861.408,338.906 859.89,338.258C858.372,337.61 856.719,337.286 854.931,337.286C852.759,337.286 850.827,337.784 849.135,338.78C847.443,339.776 846.12,341.132 845.166,342.848C844.212,344.564 843.735,346.556 843.735,348.824C843.735,351.068 844.212,353.063 845.166,354.809C846.12,356.555 847.443,357.929 849.135,358.931C850.827,359.933 852.759,360.434 854.931,360.434C856.731,360.434 858.393,360.11 859.917,359.462C861.441,358.814 862.749,357.86 863.841,356.6L868.107,360.92C866.499,362.768 864.555,364.19 862.275,365.186C859.995,366.182 857.547,366.68 854.931,366.68Z" style="fill-rule:nonzero;"/>
        <path d="M889.941,366.68C886.617,366.68 883.608,365.885 880.914,364.295C878.22,362.705 876.081,360.554 874.497,357.842C872.913,355.13 872.121,352.106 872.121,348.77C872.121,345.446 872.913,342.452 874.497,339.788C876.081,337.124 878.22,335 880.914,333.416C883.608,331.832 886.617,331.04 889.941,331.04C893.289,331.04 896.31,331.823 899.004,333.389C901.698,334.955 903.837,337.079 905.421,339.761C907.005,342.443 907.797,345.446 907.797,348.77C907.797,352.118 907.005,355.145 905.421,357.851C903.837,360.557 901.698,362.705 899.004,364.295C896.31,365.885 893.289,366.68 889.941,366.68ZM889.941,360.434C892.113,360.434 894.042,359.933 895.728,358.931C897.414,357.929 898.734,356.543 899.688,354.773C900.642,353.003 901.119,350.996 901.119,348.752C901.119,346.532 900.633,344.564 899.661,342.848C898.689,341.132 897.369,339.776 895.701,338.78C894.033,337.784 892.113,337.286 889.941,337.286C887.805,337.286 885.891,337.784 884.199,338.78C882.507,339.776 881.184,341.132 880.23,342.848C879.276,344.564 878.799,346.538 878.799,348.77C878.799,351.014 879.276,353.018 880.23,354.782C881.184,356.546 882.507,357.929 884.199,358.931C885.891,359.933 887.805,360.434 889.941,360.434Z" style="fill-rule:nonzero;"/>
        <path d="M915.591,365.96L915.591,331.76L922.089,331.76L922.089,365.96L915.591,365.96ZM938.721,365.96L938.721,345.296C938.721,342.752 937.941,340.751 936.381,339.293C934.821,337.835 932.871,337.106 930.531,337.106C928.947,337.106 927.522,337.436 926.256,338.096C924.99,338.756 923.979,339.692 923.223,340.904C922.467,342.116 922.089,343.568 922.089,345.26L919.389,343.946C919.389,341.33 919.962,339.062 921.108,337.142C922.254,335.222 923.808,333.725 925.77,332.651C927.732,331.577 929.931,331.04 932.367,331.04C934.791,331.04 936.972,331.568 938.91,332.624C940.848,333.68 942.384,335.168 943.518,337.088C944.652,339.008 945.219,341.3 945.219,343.964L945.219,365.96L938.721,365.96ZM961.851,365.96L961.851,345.296C961.851,342.752 961.071,340.751 959.511,339.293C957.951,337.835 956.001,337.106 953.661,337.106C952.113,337.106 950.697,337.436 949.413,338.096C948.129,338.756 947.109,339.692 946.353,340.904C945.597,342.116 945.219,343.568 945.219,345.26L941.493,343.946C941.673,341.318 942.393,339.047 943.653,337.133C944.913,335.219 946.551,333.725 948.567,332.651C950.583,331.577 952.803,331.04 955.227,331.04C957.687,331.04 959.904,331.568 961.878,332.624C963.852,333.68 965.424,335.171 966.594,337.097C967.764,339.023 968.349,341.318 968.349,343.982L968.349,365.96L961.851,365.96Z" style="fill-rule:nonzero;"/>
    </g>
</svg>
