<?xml version="1.0" encoding="UTF-8" standalone="no"?>
<!DOCTYPE svg PUBLIC "-//W3C//DTD SVG 1.1//EN" "http://www.w3.org/Graphics/SVG/1.1/DTD/svg11.dtd">
<svg width="100%" height="100%" viewBox="0 0 1080 1080" version="1.1" xmlns="http://www.w3.org/2000/svg" xmlns:xlink="http://www.w3.org/1999/xlink" xml:space="preserve" xmlns:serif="http://www.serif.com/" style="fill-rule:evenodd;clip-rule:evenodd;stroke-linejoin:round;stroke-miterlimit:2;">
    <g transform="matrix(0.8,0,0,0.8,108,348)">
        <g transform="matrix(1.02693,0,0,11.1545,275.515,-5411.02)">
            <path d="M274.589,523.869C274.589,523.003 266.953,522.3 257.548,522.3C248.143,522.3 240.507,523.003 240.507,523.869L240.507,554.813C240.507,555.679 248.143,556.382 257.548,556.382C266.953,556.382 274.589,555.679 274.589,554.813L274.589,523.869Z" style="fill:rgb(192,192,192);"/>
        </g>
        <g transform="matrix(1.02693,0,0,11.1545,43.0151,-5303.69)">
            <path d="M274.589,523.869C274.589,523.003 266.953,522.3 257.548,522.3C248.143,522.3 240.507,523.003 240.507,523.869L240.507,554.813C240.507,555.679 248.143,556.382 257.548,556.382C266.953,556.382 274.589,555.679 274.589,554.813L274.589,523.869Z" style="fill:rgb(192,192,192);"/>
        </g>
        <g transform="matrix(1.02693,0,0,11.1545,508.015,-5303.73)">
            <path d="M274.589,523.869C274.589,523.003 266.953,522.3 257.548,522.3C248.143,522.3 240.507,523.003 240.507,523.869L240.507,554.813C240.507,555.679 248.143,556.382 257.548,556.382C266.953,556.382 274.589,555.679 274.589,554.813L274.589,523.869Z" style="fill:rgb(192,192,192);"/>
        </g>
        <g transform="matrix(1.56628,0,0,0.783138,-168.254,202.017)">
            <circle cx="452.19" cy="431.575" r="159.614" style="fill:rgb(192,192,192);"/>
        </g>
    </g>
</svg>
